<svg xmlns="http://www.w3.org/2000/svg" viewBox="0 0 480 360">
  <defs>
    <linearGradient id="hair" x1="0" x2="0" y1="0" y2="1">
      <stop offset="0" stop-color="#ff4d8b"/>
      <stop offset="1" stop-color="#b30f5d"/>
    </linearGradient>
    <linearGradient id="bg" x1="0" x2="1" y1="0" y2="1">
      <stop offset="0" stop-color="#0b1021"/>
      <stop offset="1" stop-color="#111827"/>
    </linearGradient>
  </defs>
  <rect width="480" height="360" rx="28" fill="url(#bg)"/>
  <circle cx="110" cy="120" r="16" fill="#7dd3fc" opacity="0.35"/>
  <circle cx="420" cy="70" r="22" fill="#a855f7" opacity="0.25"/>
  <rect x="48" y="190" width="384" height="116" rx="18" fill="#0f172a" stroke="#1e293b" stroke-width="2"/>
  <path d="M120 238c20-10 52-16 82-2 26 12 57 14 86 4l64-20" fill="none" stroke="#334155" stroke-width="12" stroke-linecap="round"/>
  <ellipse cx="180" cy="170" rx="58" ry="82" fill="#111827" stroke="#1f2937" stroke-width="6"/>
  <path d="M230 102c-14 6-26 20-30 42-4 22-2 42 4 64l-18 6c-20-36-20-78 0-116 8-12 22-20 44-22z" fill="#0f172a" opacity="0.8"/>
  <path d="M156 166c-6 34 12 70 50 70 38 0 64-34 58-80-8-60-82-70-108-34" fill="#f8fafc" stroke="#e2e8f0" stroke-width="6"/>
  <path d="M144 148c0-48 30-86 86-70 10 4 22 12 26 24 14 46-28 52-42 60-8 4-12 14-12 24" fill="#f8fafc" stroke="#e2e8f0" stroke-width="6"/>
  <path d="M188 140c2 10-6 24-22 22" fill="none" stroke="#fda4af" stroke-width="6" stroke-linecap="round"/>
  <path d="M142 108c6-18 28-44 76-44 30 2 56 14 62 50 6 34-6 68-14 94" fill="url(#hair)"/>
  <path d="M158 254h128c10 0 18 8 18 18s-8 18-18 18H162c-10 0-18-8-18-18 0-10 6-16 14-18z" fill="#f8fafc" opacity="0.06"/>
  <text x="244" y="314" text-anchor="middle" font-family="'Inter', 'Arial', sans-serif" font-weight="700" font-size="26" fill="#e2e8f0">Isa Dibujos</text>
  <text x="244" y="338" text-anchor="middle" font-family="'Inter', 'Arial', sans-serif" font-size="14" fill="#a5b4fc">Arte y tatuaje hecho a mano</text>
</svg>
